<svg width="80" height="80" viewBox="0 0 80 80" fill="none"
     xmlns="http://www.w3.org/2000/svg">
    <path d="M34.72 35.632C34.72 36.608 34.456 37.424 33.928 38.08C33.416 38.72 32.72 39.2 31.84 39.52C30.96 39.84 29.992 40 28.936 40H20.632V22.96H30.112C30.912 22.96 31.6 23.176 32.176 23.608C32.768 24.024 33.216 24.568 33.52 25.24C33.84 25.912 34 26.608 34 27.328C34 28.128 33.792 28.896 33.376 29.632C32.96 30.352 32.352 30.896 31.552 31.264C32.528 31.552 33.296 32.064 33.856 32.8C34.432 33.536 34.72 34.48 34.72 35.632ZM30.712 34.84C30.712 34.472 30.64 34.152 30.496 33.88C30.352 33.592 30.16 33.368 29.92 33.208C29.696 33.032 29.424 32.944 29.104 32.944H24.568V36.664H28.936C29.272 36.664 29.568 36.584 29.824 36.424C30.096 36.264 30.312 36.048 30.472 35.776C30.632 35.504 30.712 35.192 30.712 34.84ZM24.568 26.32V29.848H28.432C28.72 29.848 28.984 29.784 29.224 29.656C29.48 29.528 29.688 29.336 29.848 29.08C30.008 28.808 30.088 28.472 30.088 28.072C30.088 27.688 30.016 27.368 29.872 27.112C29.744 26.856 29.568 26.664 29.344 26.536C29.12 26.392 28.864 26.32 28.576 26.32H24.568ZM37.0383 40V22.96H40.9743V40H37.0383ZM51.4576 40.12C50.3376 40.12 49.2816 39.912 48.2896 39.496C47.2976 39.064 46.4256 38.464 45.6736 37.696C44.9216 36.912 44.3296 35.992 43.8976 34.936C43.4816 33.864 43.2736 32.672 43.2736 31.36C43.2736 30.176 43.4896 29.072 43.9216 28.048C44.3536 27.024 44.9536 26.12 45.7216 25.336C46.4896 24.552 47.3856 23.944 48.4096 23.512C49.4496 23.064 50.5696 22.84 51.7696 22.84C53.3376 22.84 54.7216 23.176 55.9216 23.848C57.1216 24.52 58.0096 25.424 58.5856 26.56L55.6576 28.768C55.2736 28.016 54.7136 27.424 53.9776 26.992C53.2576 26.56 52.4736 26.344 51.6256 26.344C50.9856 26.344 50.3936 26.48 49.8496 26.752C49.3216 27.008 48.8576 27.376 48.4576 27.856C48.0736 28.32 47.7776 28.864 47.5696 29.488C47.3616 30.112 47.2576 30.784 47.2576 31.504C47.2576 32.24 47.3696 32.92 47.5936 33.544C47.8176 34.168 48.1296 34.712 48.5296 35.176C48.9296 35.624 49.4016 35.976 49.9456 36.232C50.5056 36.488 51.1216 36.616 51.7936 36.616C52.6096 36.616 53.3856 36.416 54.1216 36.016C54.8736 35.6 55.5616 34.992 56.1856 34.192V38.08C54.8256 39.44 53.2496 40.12 51.4576 40.12ZM55.9456 33.952H52.6336V31.096H59.2096V40H55.9456V33.952Z"
          fill="white"/>
    <path d="M20.14 58.46C19.9533 58.5533 19.72 58.6533 19.44 58.76C19.16 58.8667 18.84 58.96 18.48 59.04C18.1333 59.12 17.7733 59.16 17.4 59.16C16.9467 59.16 16.5267 59.08 16.14 58.92C15.7533 58.76 15.44 58.5067 15.2 58.16C14.9733 57.8 14.86 57.34 14.86 56.78V50.24H13.48V48.54H14.86V45.1H17.06V48.54H19.34V50.24H17.06V56.08C17.0867 56.44 17.2 56.7067 17.4 56.88C17.6133 57.0533 17.8733 57.14 18.18 57.14C18.4867 57.14 18.78 57.0867 19.06 56.98C19.34 56.8733 19.5467 56.7867 19.68 56.72L20.14 58.46ZM27.5438 50.44C26.6904 50.4533 25.9304 50.6467 25.2638 51.02C24.6104 51.3933 24.1438 51.92 23.8638 52.6V59H21.6637V48.54H23.7038V50.88C24.0638 50.16 24.5371 49.5867 25.1238 49.16C25.7104 48.72 26.3304 48.48 26.9838 48.44C27.1171 48.44 27.2238 48.44 27.3038 48.44C27.3971 48.44 27.4771 48.4467 27.5438 48.46V50.44ZM28.3647 55.94C28.3647 55.2733 28.5514 54.6933 28.9247 54.2C29.3114 53.6933 29.838 53.3067 30.5047 53.04C31.1714 52.76 31.9447 52.62 32.8247 52.62C33.2914 52.62 33.7647 52.6533 34.2447 52.72C34.738 52.7867 35.1714 52.8933 35.5447 53.04V52.38C35.5447 51.6467 35.3247 51.0733 34.8847 50.66C34.4447 50.2467 33.8114 50.04 32.9847 50.04C32.398 50.04 31.8447 50.1467 31.3247 50.36C30.8047 50.56 30.2514 50.8467 29.6647 51.22L28.9247 49.74C29.618 49.2733 30.3114 48.9267 31.0047 48.7C31.7114 48.4733 32.4514 48.36 33.2247 48.36C34.6247 48.36 35.7247 48.7333 36.5247 49.48C37.338 50.2133 37.7447 51.26 37.7447 52.62V56.52C37.7447 56.7733 37.7847 56.9533 37.8647 57.06C37.958 57.1667 38.1114 57.2267 38.3247 57.24V59C38.1247 59.04 37.9447 59.0667 37.7847 59.08C37.6247 59.0933 37.4914 59.1 37.3847 59.1C36.918 59.1 36.5647 58.9867 36.3247 58.76C36.0847 58.5333 35.9447 58.2667 35.9047 57.96L35.8447 57.36C35.3914 57.9467 34.8114 58.4 34.1047 58.72C33.398 59.04 32.6847 59.2 31.9647 59.2C31.2714 59.2 30.6514 59.06 30.1047 58.78C29.558 58.4867 29.1314 58.0933 28.8247 57.6C28.518 57.1067 28.3647 56.5533 28.3647 55.94ZM35.0247 56.58C35.1847 56.4067 35.3114 56.2333 35.4047 56.06C35.498 55.8867 35.5447 55.7333 35.5447 55.6V54.4C35.1714 54.2533 34.778 54.1467 34.3647 54.08C33.9514 54 33.5447 53.96 33.1447 53.96C32.3447 53.96 31.6914 54.12 31.1847 54.44C30.6914 54.76 30.4447 55.2 30.4447 55.76C30.4447 56.0667 30.5247 56.36 30.6847 56.64C30.858 56.92 31.098 57.1467 31.4047 57.32C31.7247 57.4933 32.118 57.58 32.5847 57.58C33.0647 57.58 33.5247 57.4867 33.9647 57.3C34.4047 57.1133 34.758 56.8733 35.0247 56.58ZM42.9822 59L39.0022 48.54H41.2822L44.2622 56.96L47.2422 48.54H49.3622L45.3822 59H42.9822ZM55.3295 59.2C54.5162 59.2 53.7762 59.06 53.1095 58.78C52.4562 58.4867 51.8895 58.0933 51.4095 57.6C50.9295 57.0933 50.5562 56.52 50.2895 55.88C50.0362 55.2267 49.9095 54.5333 49.9095 53.8C49.9095 52.8133 50.1362 51.9133 50.5895 51.1C51.0429 50.2733 51.6762 49.6133 52.4895 49.12C53.3029 48.6133 54.2562 48.36 55.3495 48.36C56.4429 48.36 57.3829 48.6133 58.1695 49.12C58.9695 49.6133 59.5895 50.2667 60.0295 51.08C60.4695 51.8933 60.6895 52.7667 60.6895 53.7C60.6895 53.86 60.6829 54.0133 60.6695 54.16C60.6562 54.2933 60.6429 54.4067 60.6295 54.5H52.2495C52.2895 55.1133 52.4562 55.6533 52.7495 56.12C53.0562 56.5733 53.4429 56.9333 53.9095 57.2C54.3762 57.4533 54.8762 57.58 55.4095 57.58C55.9962 57.58 56.5495 57.4333 57.0695 57.14C57.6029 56.8467 57.9629 56.46 58.1495 55.98L60.0295 56.52C59.8029 57.0267 59.4562 57.4867 58.9895 57.9C58.5362 58.3 57.9962 58.62 57.3695 58.86C56.7429 59.0867 56.0629 59.2 55.3295 59.2ZM52.1895 53.04H58.5095C58.4695 52.44 58.2962 51.9133 57.9895 51.46C57.6962 50.9933 57.3162 50.6333 56.8495 50.38C56.3962 50.1133 55.8895 49.98 55.3295 49.98C54.7829 49.98 54.2762 50.1133 53.8095 50.38C53.3562 50.6333 52.9829 50.9933 52.6895 51.46C52.3962 51.9133 52.2295 52.44 52.1895 53.04ZM62.5041 44.4H64.7041V55.98C64.7041 56.5133 64.7841 56.8533 64.9441 57C65.1041 57.1467 65.3041 57.22 65.5441 57.22C65.8107 57.22 66.0574 57.1933 66.2841 57.14C66.5241 57.0867 66.7307 57.02 66.9041 56.94L67.2241 58.68C66.9041 58.8133 66.5241 58.9267 66.0841 59.02C65.6441 59.1133 65.2507 59.16 64.9041 59.16C64.1574 59.16 63.5707 58.9533 63.1441 58.54C62.7174 58.1133 62.5041 57.5267 62.5041 56.78V44.4Z"
          fill="white"/>
    <circle cx="40" cy="40" r="38.5" stroke="white" stroke-width="3"/>
</svg>
